<svg xmlns="http://www.w3.org/2000/svg" xmlns:xlink="http://www.w3.org/1999/xlink" version="1.1" id="_x34_" xml:space="preserve" fill="#000000" viewBox="0 0 512 236.07"><g id="SVGRepo_bgCarrier" stroke-width="0"></g><g id="SVGRepo_tracerCarrier" stroke-linecap="round" stroke-linejoin="round"></g><g id="SVGRepo_iconCarrier"> <g> <g> <path style="fill:#525151;" d="M512,55.698v124.679c0,30.72-24.977,55.698-55.697,55.698H66.699 c-30.789,0-55.767-24.978-55.767-55.698V55.698C10.932,24.978,35.909,0,66.699,0h389.604c8.164,0,15.913,1.73,22.902,4.912 c12.316,5.605,22.279,15.568,27.883,27.883C510.27,39.784,512,47.534,512,55.698z"></path> <path style="fill:#dedede;" d="M500.999,50.647v134.78c0,27.953-22.694,50.647-50.577,50.647H50.577 c-5.535,0-10.794-0.9-15.775-2.561c-15.221-4.981-27.26-17.02-32.242-32.242C0.899,196.29,0,190.963,0,185.427V50.647 c0-3.321,0.346-6.573,0.969-9.686C4.843,20.688,20.826,4.775,41.029,0.968C44.074,0.346,47.326,0,50.577,0h399.844 C478.305,0,500.999,22.694,500.999,50.647z"></path> <path style="fill:#bd2828;" d="M450.401,14.431H50.577c-19.903,0-36.188,16.285-36.188,36.188v134.84 c0,19.904,16.285,36.188,36.188,36.188h399.824c19.904,0,36.188-16.285,36.188-36.188V50.619 C486.589,30.715,470.304,14.431,450.401,14.431z"></path> <g> <path style="fill:#FFFFFF;" d="M124.886,106.275c-0.139-3.459-0.484-6.713-1.107-9.618c-0.484-2.628-1.315-5.051-2.353-7.334 c0,0,0-0.068-0.069-0.068c-0.069-0.277-0.207-0.416-0.277-0.693c-1.245-2.49-3.044-4.843-5.328-7.127 c-3.044-3.113-6.573-5.466-10.448-7.127c-3.943-1.66-8.51-2.49-13.838-2.49c-5.258,0-9.825,0.829-13.838,2.49 c-3.943,1.66-7.472,4.014-10.516,7.127c-2.283,2.284-4.082,4.637-5.258,7.127c-1.245,2.49-2.145,5.189-2.699,8.095 c-0.554,2.905-0.9,6.159-1.038,9.618c-0.139,3.529-0.208,7.402-0.208,11.762s0.069,8.233,0.208,11.762 c0.138,3.459,0.484,6.711,1.038,9.618c0.554,2.905,1.453,5.672,2.699,8.095c0.484,0.899,0.969,1.799,1.522,2.698 c0.069,0.069,0.069,0.069,0.138,0.139v0.069c1.038,1.453,2.214,2.838,3.598,4.221c3.044,3.113,6.573,5.464,10.516,7.127 c4.013,1.661,8.58,2.49,13.838,2.49c5.328,0,9.894-0.829,13.838-2.49c3.875-1.662,7.403-4.014,10.448-7.127 c2.283-2.284,4.082-4.637,5.328-7.127c1.176-2.422,2.145-5.189,2.698-8.095c0.622-2.907,0.968-6.159,1.107-9.618 c0.138-3.529,0.208-7.402,0.208-11.762S125.025,109.804,124.886,106.275z M107.105,128.831c-0.207,2.836-0.484,5.189-0.83,6.988 c-0.277,1.868-0.761,3.321-1.315,4.497c-0.553,1.176-1.245,2.214-2.076,3.113c-1.315,1.454-2.906,2.63-4.843,3.598 c-1.868,0.9-4.082,1.384-6.573,1.384c-2.421,0-4.636-0.483-6.573-1.384c-1.868-0.968-3.529-2.144-4.913-3.598 c-0.138-0.139-0.277-0.346-0.415-0.552c-0.346-0.346-0.692-0.762-0.899-1.247c-0.277-0.416-0.554-0.899-0.761-1.314 c-0.554-1.176-0.969-2.628-1.315-4.497c-0.069-0.485-0.138-0.9-0.277-1.453c-0.138-1.039-0.277-2.215-0.346-3.53 c0-0.622-0.069-1.314-0.069-2.005c0-0.693-0.069-1.454-0.069-2.284c-0.069-0.829-0.069-1.66-0.069-2.559 c-0.069-1.801-0.069-3.806-0.069-5.951c0-2.145,0-4.152,0.069-5.951c0-0.899,0-1.73,0.069-2.559c0-0.831,0.069-1.591,0.069-2.284 c0-0.691,0.069-1.383,0.069-2.007c0.069-1.314,0.208-2.49,0.346-3.529c0.139-0.552,0.208-1.037,0.277-1.522 c0.346-1.868,0.761-3.39,1.315-4.566c0.554-1.108,1.245-2.145,2.076-3.113c1.384-1.454,3.044-2.63,4.913-3.529 c1.937-0.9,4.151-1.314,6.573-1.314c2.491,0,4.705,0.414,6.573,1.314c1.938,0.899,3.529,2.074,4.843,3.529 c0.83,0.968,1.522,2.005,2.076,3.113c0.138,0.346,0.277,0.693,0.415,1.106c0.415,0.969,0.692,2.145,0.899,3.459 c0.346,1.868,0.623,4.221,0.83,7.057c0.138,2.836,0.208,6.434,0.208,10.794S107.243,125.993,107.105,128.831z"></path> <path style="fill:#FFFFFF;" d="M188.54,73.617V128l-35.217-54.383h-15.498v88.84h17.367v-54.52l35.217,54.52h15.498v-88.84 H188.54z"></path> <path style="fill:#FFFFFF;" d="M293.085,77.215l-1.315-3.598h-13.63l-32.312,88.84h18.128l5.327-15.706h31.62l5.189,15.706 h18.128L293.085,77.215z M274.128,132.152l11.278-32.312l1.591,4.845l9.272,27.468H274.128z"></path> <path style="fill:#FFFFFF;" d="M337.712,73.617v88.84h17.367v-88.84H337.712z"></path> <path style="fill:#FFFFFF;" d="M423.23,124.127c2.145-0.693,4.22-1.801,6.158-3.184c1.938-1.314,3.667-2.975,5.189-4.981 c1.453-1.938,2.629-4.152,3.529-6.642c0.9-2.49,1.315-5.328,1.315-8.51c0-3.736-0.623-7.265-1.938-10.517 c-0.207-0.485-0.415-0.97-0.622-1.453c0-0.069-0.069-0.069-0.139-0.139c0-0.138-0.069-0.277-0.138-0.415 c-1.176-2.49-2.767-4.635-4.774-6.642c-2.491-2.422-5.535-4.429-9.133-5.882c-3.529-1.453-7.611-2.145-12.108-2.145h-34.802 v88.84h17.367v-35.424h12.454l17.367,35.424h20.065L423.23,124.127z M418.664,109.319c-2.283,2.145-5.397,3.252-9.202,3.252 h-16.329V89.047h16.329c1.868,0,3.667,0.275,5.189,0.829c1.522,0.554,2.906,1.314,4.013,2.422 c0.554,0.483,0.969,1.037,1.453,1.66c0.554,0.829,0.969,1.73,1.246,2.698l0.069,0.069c0.415,1.245,0.623,2.63,0.623,4.083 C422.054,104.338,420.947,107.105,418.664,109.319z"></path> </g> <g> <g style="opacity:0.1;"> <path style="fill:#040000;" d="M121.081,88.563c-1.245-2.49-3.044-4.843-5.328-7.127c-3.044-3.113-6.573-5.466-10.448-7.127 c-3.943-1.66-8.51-2.49-13.838-2.49c-5.258,0-9.825,0.829-13.838,2.49c-3.943,1.66-7.472,4.014-10.516,7.127 c-2.283,2.284-4.082,4.637-5.258,7.127c-1.245,2.49-2.145,5.189-2.699,8.095c-0.554,2.905-0.9,6.159-1.038,9.618 c-0.139,3.529-0.208,7.402-0.208,11.762s0.069,8.233,0.208,11.762c0.138,3.459,0.484,6.711,1.038,9.618 c0.554,2.905,1.453,5.672,2.699,8.095c0.484,0.899,0.969,1.799,1.522,2.698c0.069,0.069,0.069,0.069,0.138,0.139 c-1.038-2.282-1.799-4.704-2.283-7.333c-0.553-2.907-0.899-6.159-1.038-9.618c-0.139-3.529-0.208-7.404-0.208-11.762 c0-4.36,0.069-8.235,0.208-11.762c0.138-3.459,0.484-6.642,1.038-9.618c0.554-2.905,1.453-5.605,2.629-8.095 c1.245-2.492,3.044-4.843,5.328-7.127c3.044-3.113,6.573-5.466,10.517-7.127c3.944-1.66,8.579-2.49,13.838-2.49 c5.258,0,9.894,0.829,13.838,2.49c3.874,1.66,7.334,4.014,10.447,7.127c1.384,1.383,2.491,2.769,3.529,4.221 C121.288,88.978,121.15,88.84,121.081,88.563z"></path> <path style="fill:#040000;" d="M188.54,73.617V128l-35.217-54.383h-15.498v88.84h2.076V77.215h15.499l35.217,54.384V77.215 h15.291v-3.598H188.54z"></path> <path style="fill:#040000;" d="M291.771,73.617h-13.63l-32.312,88.84h3.391l30.997-85.242h12.869L291.771,73.617z"></path> <path style="fill:#040000;" d="M337.712,73.617v88.84h2.076V77.215h15.222v-3.598H337.712z"></path> <path style="fill:#040000;" d="M436.584,88.285c-1.176-2.49-2.767-4.635-4.774-6.642c-2.491-2.422-5.535-4.429-9.133-5.882 c-3.529-1.453-7.611-2.145-12.108-2.145h-34.802v88.84h2.076V77.215h34.802c4.497,0,8.51,0.693,12.108,2.145 c3.598,1.524,6.642,3.459,9.133,5.882c1.038,1.037,2.076,2.284,2.836,3.459c0.069,0.069,0.139,0.069,0.139,0.139 C436.791,88.632,436.653,88.424,436.584,88.285z"></path> </g> <g style="opacity:0.1;"> <path style="fill:#040000;" d="M104.96,95.62c-0.553-1.108-1.245-2.145-2.076-3.113c-1.315-1.454-2.906-2.63-4.843-3.529 c-1.868-0.9-4.082-1.314-6.573-1.314c-2.421,0-4.636,0.414-6.573,1.314c-1.868,0.899-3.529,2.074-4.913,3.529 c-0.83,0.968-1.522,2.005-2.076,3.113c-0.554,1.176-0.969,2.698-1.315,4.566c-0.069,0.485-0.138,0.97-0.277,1.522 c-0.138,1.039-0.277,2.215-0.346,3.529c-0.069,0.623-0.069,1.316-0.138,2.007c0,0.693-0.069,1.453,0,2.284 c-0.069,0.829-0.069,1.66-0.069,2.559c-0.069,1.799-0.069,3.806-0.069,5.951c0,2.145,0,4.15,0.069,5.951 c0,0.899,0,1.73,0.069,2.559c-0.069,0.829,0,1.591,0,2.284c0.069,0.691,0.069,1.383,0.138,2.005 c0.069,1.316,0.208,2.492,0.346,3.53c0.139,0.552,0.208,0.968,0.277,1.453c0.346,1.868,0.761,3.321,1.315,4.497 c0.207,0.415,0.484,0.899,0.761,1.314c0.277,0.485,0.554,0.9,0.899,1.247c-0.415-0.97-0.692-2.076-0.969-3.459 c-0.277-1.801-0.554-4.152-0.692-6.99c-0.138-2.836-0.138-6.434-0.138-10.792c0-4.36,0-7.958,0.138-10.794 c0.138-2.836,0.415-5.189,0.692-7.057c0.346-1.868,0.83-3.39,1.384-4.566c0.554-1.108,1.245-2.145,2.076-3.115 c1.384-1.453,3.044-2.628,4.913-3.527c1.937-0.831,4.151-1.314,6.573-1.314c2.491,0,4.705,0.483,6.573,1.314 c1.938,0.899,3.529,2.074,4.774,3.527c0.208,0.21,0.346,0.416,0.484,0.623C105.237,96.313,105.098,95.966,104.96,95.62z"></path> <path style="fill:#040000;" d="M285.405,99.84l-11.278,32.312h3.321l9.548-27.468L285.405,99.84z"></path> <path style="fill:#040000;" d="M420.117,93.96c-0.484-0.623-0.899-1.177-1.453-1.66c-1.107-1.108-2.491-1.868-4.013-2.422 c-1.522-0.483-3.321-0.76-5.189-0.76h-16.329v23.454h2.076V92.715h16.329c3.805,0,6.85,1.037,9.133,3.252 c0.277,0.208,0.484,0.414,0.692,0.691C421.085,95.689,420.67,94.789,420.117,93.96z"></path> </g> </g> </g> <path style="opacity:0.08;fill:#040000;" d="M456.271,0.02h-5.87h-76.403L137.96,236.057H450.4h5.87 c30.767,0,55.709-24.941,55.709-55.708V55.728C511.979,24.961,487.038,0.02,456.271,0.02z"></path> </g> </g></svg>